<?xml version="1.0" encoding="UTF-8" standalone="no"?>
<!DOCTYPE svg PUBLIC "-//W3C//DTD SVG 1.1//EN" "http://www.w3.org/Graphics/SVG/1.1/DTD/svg11.dtd">
<svg width="100%" height="100%" viewBox="0 0 136 73" version="1.1" xmlns="http://www.w3.org/2000/svg" xmlns:xlink="http://www.w3.org/1999/xlink" xml:space="preserve" xmlns:serif="http://www.serif.com/" style="fill-rule:evenodd;clip-rule:evenodd;stroke-miterlimit:10;">
    <g id="letter">
        <g id="second-e" transform="matrix(1,0,0,1,2.12473,20.176)">
            <path d="M91.847,0.863C94.98,0.863 97.782,1.527 100.253,2.856C102.724,4.185 104.743,6.021 106.309,8.363C107.875,10.706 108.955,13.451 109.546,16.598C110.138,19.745 110.121,23.136 109.494,26.773L81.822,26.773C82.171,30.619 83.232,33.819 85.007,36.371C86.782,38.924 89.341,40.305 92.682,40.515C94.492,40.655 96.163,40.515 97.694,40.095C99.226,39.675 100.601,39.151 101.819,38.522C103.037,37.892 104.082,37.21 104.952,36.476C105.822,35.742 106.501,35.13 106.988,34.64L106.988,43.976C105.735,44.606 104.343,45.165 102.811,45.655C101.489,46.074 99.905,46.441 98.06,46.756C96.215,47.071 94.144,47.193 91.847,47.123C88.436,46.983 85.495,46.267 83.023,44.973C80.552,43.679 78.516,41.983 76.915,39.885C75.314,37.787 74.113,35.357 73.312,32.595C72.512,29.833 72.111,26.948 72.111,23.941C72.111,20.794 72.512,17.822 73.312,15.024C74.113,12.227 75.331,9.779 76.967,7.681C78.603,5.583 80.656,3.923 83.128,2.699C85.599,1.475 88.505,0.863 91.847,0.863ZM91.847,6.947C88.436,6.947 85.93,8.293 84.329,10.986C82.727,13.678 81.857,17.087 81.718,21.213L101.036,21.213C101.036,19.325 100.862,17.507 100.514,15.759C100.166,14.01 99.609,12.489 98.843,11.196C98.077,9.902 97.12,8.87 95.972,8.101C94.823,7.332 93.448,6.947 91.847,6.947Z" style="fill-rule:nonzero;"/>
        </g>
        <g id="first-e" transform="matrix(1,0,0,1,2.12473,20.176)">
            <path d="M49.765,0.863C52.898,0.863 55.7,1.527 58.171,2.856C60.642,4.185 62.661,6.021 64.228,8.363C65.794,10.706 66.873,13.451 67.465,16.598C68.056,19.745 68.039,23.136 67.412,26.773L39.741,26.773C40.089,30.619 41.15,33.819 42.926,36.371C44.701,38.924 47.259,40.305 50.601,40.515C52.411,40.655 54.081,40.515 55.613,40.095C57.144,39.675 58.519,39.151 59.737,38.522C60.956,37.892 62,37.21 62.87,36.476C63.74,35.742 64.419,35.13 64.906,34.64L64.906,43.976C63.653,44.606 62.261,45.165 60.729,45.655C59.407,46.074 57.823,46.441 55.978,46.756C54.134,47.071 52.062,47.193 49.765,47.123C46.354,46.983 43.413,46.267 40.942,44.973C38.47,43.679 36.434,41.983 34.833,39.885C33.232,37.787 32.031,35.357 31.23,32.595C30.43,29.833 30.03,26.948 30.03,23.941C30.03,20.794 30.43,17.822 31.23,15.024C32.031,12.227 33.249,9.779 34.885,7.681C36.521,5.583 38.575,3.923 41.046,2.699C43.517,1.475 46.424,0.863 49.765,0.863ZM49.765,6.947C46.354,6.947 43.848,8.293 42.247,10.986C40.646,13.678 39.776,17.087 39.636,21.213L58.954,21.213C58.954,19.325 58.78,17.507 58.432,15.759C58.084,14.01 57.527,12.489 56.761,11.196C55.996,9.902 55.038,8.87 53.89,8.101C52.741,7.332 51.366,6.947 49.765,6.947Z" style="fill-rule:nonzero;"/>
        </g>
    </g>
    <g id="glasses-bar" transform="matrix(1,0,0,-1,4.77922,44.7664)">
        <path d="M110.498,40.448L125.964,4.706C126.703,2.999 125.917,1.016 124.21,0.277C123.788,0.094 123.332,0 122.872,0L20.4,0C17.654,0 15.183,1.666 14.154,4.212L0,39.226" style="fill:none;fill-rule:nonzero;stroke:black;stroke-width:5.73px;"/>
    </g>
</svg>
